<svg width="267" height="76" viewBox="0 0 267 76" fill="none" xmlns="http://www.w3.org/2000/svg">
<path d="M38.0084 62L23.9958 52.9958L37.9916 44L51.9874 52.9958L37.9916 61.9972L38.0084 62ZM52.0042 49.9972L38.0084 40.9986L52.0042 32L38.0084 23.0042L52.0042 14L66 23.0042L52.0042 32L66 40.9986L52.0042 49.9972ZM23.9958 49.9972L10 40.9986L23.9958 32L10 23.0042L23.9958 14L37.9916 23.0042L23.9958 31.9972L37.9916 40.9958L23.9958 49.9972Z" fill="#63A1FF"/>
<path d="M118.691 23.7314L112.945 53H106.519L103.816 39.0664C103.736 38.5859 103.65 38.0721 103.556 37.5249C103.476 36.9777 103.389 36.4038 103.296 35.8032C103.216 35.2026 103.142 34.582 103.076 33.9414C103.009 33.2874 102.942 32.6134 102.875 31.9194C102.822 32.4399 102.762 33.0005 102.695 33.6011C102.629 34.1883 102.555 34.7956 102.475 35.4229C102.395 36.0368 102.308 36.6507 102.215 37.2646C102.121 37.8786 102.021 38.4658 101.915 39.0264L99.2119 53H92.8257L87.04 23.7314H92.5254L95.208 38.5259C95.3148 39.1131 95.4149 39.7471 95.5083 40.4277C95.6151 41.0951 95.7152 41.7824 95.8086 42.4897C95.9154 43.1971 96.0088 43.8911 96.0889 44.5718C96.1823 45.2524 96.2557 45.8864 96.3091 46.4736C96.3892 45.793 96.4759 45.0923 96.5693 44.3716C96.6761 43.6509 96.7829 42.9435 96.8896 42.2495C97.0098 41.5555 97.1232 40.9015 97.23 40.2876C97.3368 39.6603 97.4368 39.0998 97.5303 38.606L100.533 23.7314H105.238L108.041 38.5659C108.147 39.0998 108.254 39.687 108.361 40.3276C108.481 40.9549 108.594 41.6156 108.701 42.3096C108.808 43.0036 108.908 43.7043 109.001 44.4116C109.095 45.1056 109.182 45.793 109.262 46.4736C109.328 45.6729 109.422 44.8187 109.542 43.9111C109.662 43.0036 109.789 42.0894 109.922 41.1685C110.069 40.2342 110.216 39.3534 110.363 38.5259L113.085 23.7314H118.691ZM133.826 30.5781V53H128.5V30.5781H133.826ZM131.163 21.7495C132.164 21.7495 132.898 22.0164 133.365 22.5503C133.832 23.0708 134.066 23.8315 134.066 24.8325C134.066 25.8068 133.819 26.5542 133.325 27.0747C132.845 27.5819 132.124 27.8354 131.163 27.8354C130.229 27.8354 129.508 27.5819 129.001 27.0747C128.494 26.5542 128.24 25.8068 128.24 24.8325C128.24 23.8049 128.474 23.0374 128.941 22.5303C129.421 22.0098 130.162 21.7495 131.163 21.7495ZM157.769 46.4336C157.769 47.9551 157.482 49.2363 156.908 50.2773C156.348 51.305 155.527 52.0858 154.446 52.6196C153.378 53.1401 152.09 53.4004 150.582 53.4004C149.501 53.4004 148.467 53.2936 147.479 53.0801C146.505 52.8799 145.584 52.5662 144.716 52.1392V46.9741C145.437 47.4679 146.271 47.895 147.219 48.2554C148.166 48.6024 149.127 48.7759 150.102 48.7759C150.849 48.7759 151.423 48.6024 151.823 48.2554C152.224 47.9084 152.424 47.4012 152.424 46.7339C152.424 46.3602 152.344 46.0132 152.184 45.6929C152.023 45.3592 151.703 45.0122 151.223 44.6519C150.742 44.2782 150.021 43.8511 149.061 43.3706C148.14 42.8634 147.352 42.2829 146.698 41.6289C146.044 40.9749 145.544 40.2275 145.197 39.3867C144.85 38.5459 144.676 37.5916 144.676 36.5239C144.676 34.5487 145.29 32.9938 146.518 31.8594C147.746 30.7249 149.428 30.1577 151.563 30.1577C152.657 30.1577 153.685 30.3112 154.646 30.6182C155.62 30.9118 156.575 31.3455 157.509 31.9194L156.047 36.0234C155.407 35.5964 154.733 35.236 154.025 34.9424C153.318 34.6488 152.597 34.502 151.863 34.502C151.209 34.502 150.709 34.6621 150.362 34.9824C150.015 35.2894 149.841 35.7165 149.841 36.2637C149.841 36.6507 149.921 36.9844 150.082 37.2646C150.242 37.5449 150.555 37.8586 151.022 38.2056C151.503 38.5392 152.204 38.9863 153.125 39.5469C154.045 40.0807 154.853 40.6613 155.547 41.2886C156.241 41.9159 156.781 42.6432 157.168 43.4707C157.569 44.2982 157.769 45.2858 157.769 46.4336ZM175.827 30.1978C177.508 30.1978 178.93 30.6115 180.091 31.439C181.265 32.2664 182.153 33.4409 182.753 34.9624C183.354 36.4705 183.654 38.259 183.654 40.3276V43.3306H172.964C172.991 45.2925 173.351 46.7406 174.045 47.6748C174.739 48.5957 175.8 49.0562 177.228 49.0562C178.176 49.0562 179.07 48.936 179.911 48.6958C180.765 48.4422 181.672 48.0151 182.633 47.4146V51.8589C181.739 52.3927 180.785 52.7798 179.771 53.02C178.756 53.2736 177.662 53.4004 176.487 53.4004C174.432 53.4004 172.757 52.9399 171.462 52.019C170.168 51.0848 169.22 49.7635 168.62 48.0552C168.019 46.3335 167.719 44.2915 167.719 41.9292C167.719 39.4067 168.019 37.278 168.62 35.543C169.234 33.7946 170.141 32.4666 171.342 31.5591C172.543 30.6515 174.038 30.1978 175.827 30.1978ZM175.947 34.3818C175.066 34.3818 174.365 34.7822 173.845 35.583C173.324 36.3704 173.044 37.665 173.004 39.4668H178.709C178.709 38.4124 178.603 37.5049 178.389 36.7441C178.176 35.9834 177.862 35.4028 177.448 35.0024C177.035 34.5887 176.534 34.3818 175.947 34.3818ZM194.965 23.7314H202.673C205.689 23.7314 207.945 24.3254 209.439 25.5132C210.948 26.6877 211.702 28.4961 211.702 30.9385C211.702 32.0863 211.542 33.1139 211.221 34.0215C210.914 34.9157 210.467 35.6564 209.88 36.2437C209.293 36.8309 208.585 37.238 207.758 37.4648V37.665C208.799 37.9453 209.646 38.3857 210.3 38.9863C210.968 39.5869 211.455 40.3477 211.762 41.2686C212.069 42.1895 212.222 43.2705 212.222 44.5117C212.222 46.2467 211.875 47.7482 211.181 49.0161C210.5 50.284 209.513 51.265 208.218 51.959C206.924 52.653 205.375 53 203.574 53H194.965V23.7314ZM200.591 35.583H202.673C203.807 35.583 204.648 35.256 205.195 34.6021C205.756 33.9481 206.036 32.9871 206.036 31.7192C206.036 30.6115 205.749 29.7707 205.175 29.1968C204.601 28.6095 203.741 28.3159 202.593 28.3159H200.591V35.583ZM200.591 40.0474V48.2754H203.133C204.254 48.2754 205.095 47.9284 205.656 47.2344C206.216 46.5404 206.497 45.486 206.497 44.0713C206.497 43.2038 206.356 42.4764 206.076 41.8892C205.796 41.2886 205.389 40.8348 204.855 40.5278C204.334 40.2075 203.687 40.0474 202.913 40.0474H200.591ZM239.869 41.729C239.869 43.2905 239.709 44.772 239.389 46.1733C239.082 47.5747 238.588 48.8159 237.907 49.897C237.24 50.978 236.359 51.8322 235.265 52.4595C234.184 53.0868 232.862 53.4004 231.301 53.4004C229.846 53.4004 228.585 53.0934 227.517 52.4795C226.449 51.8656 225.569 51.0247 224.875 49.957C224.181 48.876 223.66 47.6348 223.313 46.2334C222.979 44.8187 222.812 43.3172 222.812 41.729C222.812 39.4735 223.106 37.4782 223.693 35.7432C224.294 33.9948 225.222 32.6268 226.476 31.6392C227.744 30.6515 229.379 30.1577 231.381 30.1577C233.103 30.1577 234.597 30.6048 235.865 31.499C237.146 32.3932 238.134 33.7012 238.828 35.4229C239.522 37.1312 239.869 39.2332 239.869 41.729ZM228.218 41.8091C228.218 43.3573 228.325 44.6585 228.538 45.7129C228.765 46.7673 229.105 47.5614 229.559 48.0952C230.026 48.6291 230.62 48.896 231.341 48.896C232.075 48.896 232.662 48.6357 233.103 48.1152C233.556 47.5814 233.883 46.7806 234.083 45.7129C234.297 44.6452 234.404 43.3172 234.404 41.729C234.404 40.1541 234.297 38.8462 234.083 37.8052C233.883 36.7642 233.556 35.9834 233.103 35.4629C232.662 34.9424 232.075 34.6821 231.341 34.6821C230.246 34.6821 229.452 35.2627 228.958 36.4238C228.465 37.585 228.218 39.38 228.218 41.8091ZM254.243 41.5288L249.258 30.5781H255.024L257.646 37.3047L260.229 30.5781H265.975L261.01 41.6089L266.215 53H260.449L257.526 45.793L254.704 53H249.038L254.243 41.5288Z" fill="#63A1FF"/>
</svg>
