<svg width="32" height="32" viewBox="0 0 32 32" fill="none" xmlns="http://www.w3.org/2000/svg">
<path d="M13.9974 31.9965H4.66635C2.82592 31.9948 1.33437 30.5031 1.33261 28.6625V13.1443C0.0260097 12.2171 -0.38079 10.4591 0.385602 9.05201C1.82532 6.47951 3.29383 3.9438 4.73834 1.51368C5.3177 0.564986 6.35271 -0.00966774 7.4642 0.00012314C8.1417 0.00701835 8.80072 0.22205 9.35183 0.61618L9.39022 0.640177C10.0493 1.02413 16.4161 4.8141 21.5335 7.85855L26.075 10.559L26.283 10.6822C29.8311 12.7796 30.6293 13.2563 30.6741 13.2867C31.9802 14.2115 32.3819 15.9708 31.6067 17.371C30.1942 19.8939 28.7273 22.4296 27.254 24.9093C26.6821 25.8478 25.6653 26.4234 24.5665 26.4308C24.3512 26.4309 24.1365 26.4068 23.9266 26.3588C23.7411 26.4692 22.7173 27.1267 21.4199 27.9586C19.1116 29.4384 15.957 31.4622 15.5923 31.6494C15.1 31.9028 14.5501 32.0224 13.9974 31.9965ZM3.99929 17.6462V28.6625C3.99929 29.031 4.29795 29.3296 4.66635 29.3296H10.7819C8.4576 25.4053 6.17646 21.4729 3.99929 17.6462ZM6.17166 16.0464C6.81153 17.1454 13.7158 29.0561 13.7734 29.1361C13.8643 29.2543 14.0051 29.3234 14.1542 29.3232C14.2327 29.3232 14.3101 29.3042 14.3797 29.2672C14.5957 29.1457 21.0888 24.9733 21.1528 24.9317C20.6505 24.6358 17.016 22.4696 13.1672 20.1771L6.13966 15.9984L6.15086 16.016L6.16686 16.0432V16.0528L6.17166 16.0464ZM6.92991 3.0399C5.63736 5.11966 2.74513 10.2839 2.70674 10.3783C2.6119 10.6049 2.69604 10.8668 2.9051 10.9958C3.11786 11.1222 24.2674 23.7239 24.4689 23.7559C24.4943 23.7578 24.5201 23.7578 24.5457 23.7559C24.7194 23.7565 24.8808 23.6661 24.9712 23.5175C26.2734 21.3306 29.2728 16.0672 29.2808 16.0512C29.3734 15.8237 29.2889 15.5624 29.0808 15.432C28.8776 15.3104 7.76814 2.76473 7.63217 2.70554C7.57037 2.67953 7.50406 2.66593 7.43701 2.66555C7.26854 2.66647 7.11177 2.75178 7.01949 2.89272L7.00829 2.91192L6.99549 2.93111L6.9763 2.96311V2.97111L6.9523 3.00951L6.92831 3.0399H6.92991ZM9.09428 11.8229C7.62345 11.822 6.4314 10.6296 6.43082 9.15867C6.43023 7.68771 7.62132 6.49437 9.09215 6.49231C10.563 6.49026 11.7574 7.68025 11.7609 9.1512C11.7592 10.6234 10.5663 11.8163 9.09428 11.8181V11.8229Z" fill="#999999"/>
</svg>
