<svg width="34" height="34" viewBox="0 0 34 34" fill="none" xmlns="http://www.w3.org/2000/svg">
<path d="M20.0332 33.6667H13.9665C13.1834 33.6667 12.5058 33.1217 12.3382 32.3567L11.6599 29.2167C10.755 28.8202 9.89694 28.3244 9.10157 27.7384L6.0399 28.7134C5.29324 28.9515 4.48155 28.6372 4.0899 27.9584L1.0499 22.7067C0.662553 22.0275 0.796003 21.1709 1.37157 20.6417L3.74657 18.475C3.63857 17.4935 3.63857 16.5032 3.74657 15.5217L1.37157 13.36C0.795153 12.8307 0.661653 11.9729 1.0499 11.2934L4.08324 6.03837C4.47489 5.35954 5.28657 5.04527 6.03324 5.28337L9.0949 6.25837C9.50167 5.95697 9.92512 5.67874 10.3632 5.42504C10.7838 5.18786 11.2166 4.97312 11.6599 4.78171L12.3399 1.64504C12.5067 0.879991 13.1836 0.334191 13.9665 0.333374H20.0332C20.8162 0.334191 21.493 0.879991 21.6599 1.64504L22.3465 4.78337C22.8145 4.98924 23.2704 5.22184 23.7115 5.48004C24.1232 5.71806 24.521 5.97902 24.9032 6.26171L27.9665 5.28671C28.7127 5.04949 29.5234 5.36364 29.9149 6.04171L32.9482 11.2967C33.3355 11.9758 33.2022 12.8326 32.6265 13.3617L30.2515 15.5284C30.3595 16.5099 30.3595 17.5002 30.2515 18.4817L32.6265 20.6484C33.2022 21.1775 33.3355 22.0342 32.9482 22.7134L29.9149 27.9684C29.5234 28.6464 28.7127 28.9605 27.9665 28.7234L24.9032 27.7484C24.5155 28.0339 24.1129 28.2982 23.6965 28.54C23.2595 28.7932 22.8089 29.0219 22.3465 29.225L21.6599 32.3567C21.4924 33.121 20.8157 33.666 20.0332 33.6667ZM9.6999 24.0484L11.0666 25.0484C11.3747 25.2754 11.6958 25.484 12.0282 25.6734C12.3411 25.8545 12.6632 26.0192 12.9932 26.1667L14.5482 26.8484L15.3099 30.3334H18.6932L19.4549 26.8467L21.0099 26.165C21.6887 25.8657 22.333 25.4935 22.9315 25.055L24.2999 24.055L27.7015 25.1384L29.3932 22.2084L26.7549 19.8034L26.9415 18.1167C27.0235 17.379 27.0235 16.6344 26.9415 15.8967L26.7549 14.21L29.3949 11.8L27.7015 8.86837L24.2999 9.95171L22.9315 8.95171C22.3329 8.51122 21.6887 8.13629 21.0099 7.83337L19.4549 7.15171L18.6932 3.66671H15.3099L14.5449 7.15337L12.9932 7.83337C12.6629 7.97844 12.3408 8.14147 12.0282 8.32171C11.6978 8.51059 11.3784 8.71814 11.0716 8.94337L9.70324 9.94337L6.30324 8.86004L4.60824 11.8L7.24657 14.2017L7.0599 15.89C6.9779 16.6277 6.9779 17.3724 7.0599 18.11L7.24657 19.7967L4.60824 22.2017L6.2999 25.1317L9.6999 24.0484ZM16.9932 23.6667C13.3113 23.6667 10.3266 20.6819 10.3266 17C10.3266 13.3181 13.3113 10.3334 16.9932 10.3334C20.6752 10.3334 23.6599 13.3181 23.6599 17C23.6554 20.68 20.6732 23.662 16.9932 23.6667ZM16.9932 13.6667C15.1722 13.6685 13.6897 15.1314 13.6636 16.9522C13.6375 18.773 15.0775 20.2779 16.8977 20.3319C18.7179 20.3859 20.2447 18.9692 20.3265 17.15V17.8167V17C20.3265 15.159 18.8342 13.6667 16.9932 13.6667Z" fill="#999999"/>
</svg>
