<svg width="40" height="40" viewBox="0 0 40 40" fill="none" xmlns="http://www.w3.org/2000/svg">
<g clip-path="url(#clip0_139_148)">
<path d="M33.3334 35H6.66671C4.82576 35 3.33337 33.5077 3.33337 31.6667V8.33333C3.33337 6.49238 4.82576 5 6.66671 5H33.3334C35.1744 5 36.6667 6.49238 36.6667 8.33333V31.6667C36.6667 33.5077 35.1744 35 33.3334 35ZM6.66671 11.6667V31.6667H33.3334V11.6667H6.66671ZM24.5117 27.845L22.1567 25.49L25.9767 21.6667L22.155 17.845L24.5117 15.4883L30.69 21.6667L24.5134 27.8433L24.5117 27.845ZM15.4884 27.845L9.31004 21.6667L15.4884 15.4883L17.845 17.845L14.0234 21.6667L17.8434 25.4883L15.4884 27.8433V27.845Z" fill="#999999"/>
</g>
<defs>
<clipPath id="clip0_139_148">
<rect width="40" height="40" fill="white"/>
</clipPath>
</defs>
</svg>
